<svg width="33" height="33" viewBox="0 0 33 33" fill="none" xmlns="http://www.w3.org/2000/svg">
<rect width="33" height="33" fill="#202020"/>
<path d="M20.9706 3.3995C21.3611 3.00897 21.9942 3.00897 22.3848 3.3995C22.7753 3.79002 22.7753 4.42319 22.3848 4.81371L20.9706 3.3995ZM3.99999 22.7843C3.44771 22.7843 3 22.3366 3 21.7843V12.7843C3 12.232 3.44771 11.7843 3.99999 11.7843C4.55228 11.7843 4.99999 12.232 4.99999 12.7843V20.7843H13C13.5523 20.7843 14 21.232 14 21.7843C14 22.3366 13.5523 22.7843 13 22.7843H3.99999ZM22.3848 4.81371L4.7071 22.4914L3.29289 21.0772L20.9706 3.3995L22.3848 4.81371Z" fill="#E10000"/>
<path d="M11.9914 29.5624C11.6009 29.953 10.9677 29.953 10.5772 29.5624C10.1866 29.1719 10.1866 28.5387 10.5772 28.1482L11.9914 29.5624ZM28.9619 10.1777C29.5142 10.1777 29.9619 10.6254 29.9619 11.1777V20.1777C29.9619 20.7299 29.5142 21.1777 28.9619 21.1777C28.4096 21.1777 27.9619 20.7299 27.9619 20.1777V12.1777H19.9619C19.4097 12.1777 18.9619 11.73 18.9619 11.1777C18.9619 10.6254 19.4097 10.1777 19.9619 10.1777H28.9619ZM10.5772 28.1482L28.2548 10.4706L29.669 11.8848L11.9914 29.5624L10.5772 28.1482Z" fill="#04D700"/>
</svg>
